<?xml version="1.0" standalone="no"?>
<!DOCTYPE svg PUBLIC "-//W3C//DTD SVG 20010904//EN"
 "http://www.w3.org/TR/2001/REC-SVG-20010904/DTD/svg10.dtd">
<svg version="1.0" xmlns="http://www.w3.org/2000/svg"
 width="320.000000pt" height="320.000000pt" viewBox="0 0 320.000000 320.000000"
 preserveAspectRatio="xMidYMid meet">
<metadata>
Created by potrace 1.11, written by Peter Selinger 2001-2013
</metadata>
<g transform="translate(0.000000,320.000000) scale(0.100000,-0.100000)"
fill="#000000" stroke="none">
<path d="M103 2998 c1 -54 -2 -98 -6 -98 -4 0 -3 -9 3 -19 5 -11 7 -22 2 -24
-4 -3 -5 -39 -2 -81 3 -42 1 -76 -3 -76 -4 0 -3 -9 3 -19 7 -14 7 -22 0 -26
-8 -5 -7 -11 1 -21 9 -11 9 -14 0 -14 -8 0 -9 -5 -1 -19 5 -11 7 -22 2 -24 -4
-3 -5 -39 -2 -81 3 -42 1 -76 -3 -76 -4 0 -3 -9 3 -19 5 -11 7 -22 2 -24 -4
-3 -5 -39 -2 -81 3 -42 1 -76 -3 -76 -4 0 -3 -9 3 -19 7 -14 7 -22 0 -26 -8
-5 -7 -11 1 -21 9 -11 9 -14 0 -14 -8 0 -9 -5 -1 -19 5 -11 7 -22 2 -24 -4 -3
-5 -39 -2 -81 3 -42 1 -76 -3 -76 -4 0 -3 -9 3 -19 5 -11 7 -22 2 -24 -4 -3
-5 -39 -2 -81 3 -42 1 -76 -3 -76 -4 0 -3 -9 3 -19 7 -14 7 -22 0 -26 -8 -5
-7 -11 1 -21 9 -11 9 -14 0 -14 -8 0 -9 -5 -1 -19 5 -11 7 -22 2 -24 -4 -3 -5
-39 -2 -81 3 -42 1 -76 -3 -76 -4 0 -3 -9 3 -19 5 -11 7 -22 2 -24 -4 -3 -5
-39 -2 -81 3 -42 1 -76 -3 -76 -4 0 -3 -9 3 -19 7 -14 7 -22 0 -26 -8 -5 -7
-11 1 -21 9 -11 9 -14 0 -14 -8 0 -9 -5 -1 -19 5 -11 7 -22 2 -24 -4 -3 -5
-39 -2 -81 3 -42 1 -76 -3 -76 -4 0 -3 -9 3 -19 5 -11 7 -22 2 -24 -4 -3 -5
-39 -2 -81 3 -42 1 -76 -3 -76 -4 0 -3 -9 3 -19 7 -14 7 -22 0 -26 -8 -5 -7
-11 1 -21 9 -11 9 -14 0 -14 -8 0 -9 -5 -1 -19 5 -11 7 -22 2 -24 -4 -3 -5
-39 -2 -81 3 -42 1 -76 -3 -76 -4 0 -3 -9 3 -19 5 -11 7 -22 2 -24 -4 -3 -5
-39 -2 -81 3 -42 1 -76 -3 -76 -4 0 -3 -9 3 -19 7 -14 7 -22 0 -26 -8 -5 -7
-11 1 -21 9 -11 9 -14 0 -14 -8 0 -9 -5 -2 -18 7 -13 6 -23 -2 -32 -9 -10 -9
-14 0 -17 8 -3 11 -14 7 -27 l-5 -23 1498 1 1498 1 0 73 c0 39 4 72 8 72 4 0
4 7 -1 17 -5 9 -6 29 -2 44 5 15 6 30 3 33 -9 8 -9 106 0 106 4 0 4 8 -2 17
-5 10 -5 26 0 40 5 14 5 23 -1 23 -6 0 -6 9 0 24 5 13 6 26 3 29 -8 9 -9 147
0 147 4 0 4 7 -1 17 -5 9 -6 29 -2 44 5 15 6 30 3 33 -9 8 -9 106 0 106 4 0 4
8 -2 17 -5 10 -5 26 0 40 5 14 5 23 -1 23 -6 0 -6 9 0 24 5 13 6 26 3 29 -8 9
-9 147 -1 147 4 0 5 7 2 15 -9 24 -10 145 -1 145 4 0 4 7 -1 17 -5 9 -6 29 -2
44 5 15 6 30 3 33 -9 8 -9 106 0 106 4 0 4 8 -2 17 -5 10 -5 26 0 40 5 14 5
23 -1 23 -6 0 -6 9 0 24 5 13 6 26 3 29 -8 9 -9 147 -1 147 4 0 5 7 2 15 -9
24 -10 145 -1 145 4 0 4 7 -1 17 -5 9 -6 29 -2 44 5 15 6 30 3 33 -9 8 -9 106
0 106 4 0 4 8 -2 17 -5 10 -5 26 0 40 5 14 5 23 -1 23 -6 0 -6 9 0 24 5 13 6
26 3 29 -8 9 -9 147 -1 147 4 0 5 7 2 15 -9 24 -10 145 -1 145 4 0 4 7 -1 17
-5 9 -6 29 -2 44 5 15 6 30 3 33 -9 8 -9 106 0 106 4 0 4 8 -2 17 -5 10 -5 26
0 40 5 14 5 23 -1 23 -6 0 -6 9 0 24 5 13 6 27 3 30 -3 3 -6 29 -7 58 l-1 53
-1497 1 -1497 1 2 -99z m2682 -1398 l0 -1185 -1187 -1 -1188 0 0 613 c0 337 0
723 0 858 0 135 0 393 0 573 l0 328 1188 0 1187 -1 0 -1185z"/>
<path d="M1228 2105 c-1 -2 -25 -5 -53 -8 -113 -12 -204 -54 -275 -126 -32
-32 -81 -111 -75 -121 3 -6 0 -10 -7 -10 -8 0 -14 -8 -15 -17 0 -10 -4 -29 -8
-43 -4 -14 -8 -50 -10 -81 -1 -31 -6 -62 -9 -68 -4 -6 -4 -11 1 -11 4 0 9 -23
10 -51 3 -101 66 -215 155 -284 27 -21 105 -55 151 -66 66 -16 250 -5 307 18
14 6 27 9 30 7 4 -1 11 6 18 17 7 10 9 19 5 19 -5 0 -9 10 -9 23 -2 26 -11 63
-19 76 -3 5 -18 3 -35 -5 -16 -8 -39 -17 -52 -20 -36 -9 -162 -13 -173 -6 -5
4 -17 7 -25 9 -59 9 -167 117 -174 176 -2 12 -6 29 -10 38 -11 26 -13 113 -3
127 6 8 5 12 -4 12 -11 0 -11 2 1 10 8 5 12 10 8 10 -14 0 30 99 61 139 43 54
123 92 203 96 55 3 83 -2 184 -30 18 -5 22 0 31 42 7 26 15 56 18 66 5 12 2
17 -9 17 -9 0 -16 4 -16 8 0 5 -6 9 -12 10 -7 0 -24 3 -38 7 -14 3 -47 8 -75
11 -27 2 -55 6 -62 9 -6 2 -13 2 -15 0z"/>
<path d="M1895 2098 c-202 -30 -337 -220 -330 -463 3 -79 28 -189 46 -201 5
-3 7 -10 4 -15 -4 -5 -1 -9 4 -9 6 0 11 -7 11 -15 0 -8 5 -15 10 -15 6 0 10
-5 10 -10 0 -14 55 -70 69 -70 6 0 11 -4 11 -8 0 -7 54 -38 70 -40 3 0 17 -5
32 -11 50 -19 197 -13 223 9 7 5 15 7 18 3 4 -3 7 -1 7 6 0 7 4 10 9 7 5 -3
28 12 51 34 23 22 45 38 49 35 6 -3 7 -120 1 -120 -1 0 -3 -13 -5 -30 -2 -16
-9 -31 -15 -33 -5 -2 -8 -8 -5 -13 14 -21 -48 -90 -108 -122 -75 -39 -232 -31
-328 17 -50 25 -62 19 -69 -36 -1 -4 -7 -20 -15 -35 -13 -26 -13 -28 13 -45
34 -23 123 -50 182 -55 145 -12 245 4 334 53 49 27 113 89 109 105 -2 5 1 9 6
9 8 0 23 30 26 50 0 3 4 11 8 18 5 6 5 17 2 22 -3 6 -2 10 3 10 13 0 24 82 27
186 1 44 5 86 9 92 4 7 4 12 -1 12 -10 0 -10 81 0 98 5 6 5 12 0 12 -10 0 -10
171 0 188 5 6 5 12 0 12 -10 0 -10 91 0 108 5 6 5 12 0 12 -7 0 -7 120 0 205
l2 30 -72 0 c-79 0 -75 3 -77 -62 -1 -40 -10 -41 -45 -4 -21 23 -80 61 -101
66 -82 20 -116 22 -175 13z m191 -159 c37 -22 74 -70 93 -116 18 -44 18 -255
1 -308 -7 -22 -23 -53 -36 -68 -13 -16 -24 -33 -24 -38 0 -6 -4 -8 -9 -5 -5 3
-14 -1 -21 -9 -6 -8 -26 -19 -43 -24 -111 -37 -213 3 -273 106 -32 53 -36 71
-40 169 -4 97 18 180 60 231 43 53 89 82 140 90 17 3 32 6 34 8 7 7 89 -18
118 -36z"/>
</g>
</svg>
